<?xml version="1.0" encoding="utf-8"?>
<svg viewBox="0 0 128 128" xmlns="http://www.w3.org/2000/svg">
  <linearGradient id="kotlin-original-a" gradientUnits="userSpaceOnUse" x1="-11.899" y1="48.694" x2="40.299" y2="-8.322" gradientTransform="matrix(0.260382, 0, 0, 0.223345, 28.803591, 90.074073)">
    <stop offset="0" stop-color="#1c93c1"/>
    <stop offset="0.163" stop-color="#2391c0"/>
    <stop offset="0.404" stop-color="#378bbe"/>
    <stop offset="0.696" stop-color="#587eb9"/>
    <stop offset="0.995" stop-color="#7f6cb1"/>
  </linearGradient>
  <linearGradient id="kotlin-original-b" gradientUnits="userSpaceOnUse" x1="43.553" y1="149.174" x2="95.988" y2="94.876" gradientTransform="matrix(0.260382, 0, 0, 0.223345, 28.803591, 90.074073)">
    <stop offset="0" stop-color="#1c93c1"/>
    <stop offset="0.216" stop-color="#2d8ebf"/>
    <stop offset="0.64" stop-color="#587eb9"/>
    <stop offset="0.995" stop-color="#7f6cb1"/>
  </linearGradient>
  <linearGradient id="kotlin-original-c" gradientUnits="userSpaceOnUse" x1="3.24" y1="95.249" x2="92.481" y2="2.116" gradientTransform="matrix(0.260382, 0, 0, 0.223345, 28.803591, 90.074073)">
    <stop offset="0" stop-color="#c757a7"/>
    <stop offset="0.046" stop-color="#ca5a9e"/>
    <stop offset="0.241" stop-color="#d66779"/>
    <stop offset="0.428" stop-color="#e17357"/>
    <stop offset="0.6" stop-color="#e97c3a"/>
    <stop offset="0.756" stop-color="#ef8324"/>
    <stop offset="0.888" stop-color="#f28817"/>
    <stop offset="0.982" stop-color="#f48912"/>
  </linearGradient>
  <path fill="#659AD3" d="M 51.409 11.09 L 32.433 2.418 C 32.119 2.262 31.687 2.2 31.215 2.2 C 30.744 2.2 30.312 2.294 29.998 2.418 L 11.139 11.121 C 10.471 11.433 10 12.213 10 12.805 L 10 30.18 C 10 30.523 10.079 30.928 10.393 31.271 L 52.352 11.932 C 52.117 11.558 51.763 11.277 51.409 11.09 Z" style=""/>
  <path fill="#03599C" d="M 10.275 31.24 C 10.471 31.49 10.746 31.708 11.021 31.833 L 29.958 40.536 C 30.273 40.692 30.705 40.754 31.176 40.754 C 31.648 40.754 32.08 40.66 32.394 40.536 L 51.252 31.833 C 51.92 31.521 52.392 30.741 52.392 30.149 L 52.392 12.774 C 52.392 12.494 52.352 12.182 52.156 11.901 L 10.275 31.24 Z" style=""/>
  <path fill="#fff" d="M 39.584 25.251 C 37.934 27.56 34.791 29.119 31.215 29.119 C 25.912 29.119 21.59 25.688 21.59 21.477 C 21.59 17.266 25.912 13.835 31.215 13.835 C 34.791 13.835 37.934 15.394 39.584 17.734 L 44.691 15.394 C 42.02 11.683 36.991 9.156 31.215 9.156 C 22.651 9.156 15.697 14.677 15.697 21.477 C 15.697 28.277 22.651 33.798 31.215 33.798 C 36.951 33.798 41.98 31.303 44.652 27.622 L 39.584 25.251 Z" style=""/>
  <path fill="#D26383" d="M 112.413 10.891 L 92.859 1.993 C 92.535 1.832 92.089 1.769 91.603 1.769 C 91.118 1.769 90.672 1.864 90.348 1.993 L 70.915 10.923 C 70.226 11.242 69.741 12.043 69.741 12.65 L 69.741 30.477 C 69.741 30.83 69.822 31.246 70.145 31.598 L 113.386 11.754 C 113.142 11.371 112.778 11.081 112.413 10.891 Z" style=""/>
  <path fill="#9C033A" d="M 70.024 31.566 C 70.226 31.821 70.51 32.046 70.794 32.174 L 90.308 41.104 C 90.631 41.264 91.077 41.328 91.563 41.328 C 92.049 41.328 92.494 41.232 92.818 41.104 L 112.251 32.174 C 112.94 31.854 113.425 31.054 113.425 30.445 L 113.425 12.618 C 113.425 12.331 113.386 12.01 113.183 11.722 L 70.024 31.566 Z" style=""/>
  <path fill="#fff" d="M 100.226 25.421 C 98.526 27.79 95.287 29.39 91.603 29.39 C 86.137 29.39 81.684 25.869 81.684 21.548 C 81.684 17.227 86.137 13.707 91.603 13.707 C 95.287 13.707 98.526 15.307 100.226 17.707 L 105.49 15.307 C 102.737 11.498 97.556 8.906 91.603 8.906 C 82.777 8.906 75.612 14.571 75.612 21.548 C 75.612 28.526 82.777 34.191 91.603 34.191 C 97.514 34.191 102.696 31.63 105.449 27.854 L 100.226 25.421 Z" style=""/>
  <path d="M 98.931 20.844 L 101.037 20.844 L 101.037 19.148 L 102.818 19.148 L 102.818 20.844 L 104.963 20.844 L 104.963 22.252 L 102.818 22.252 L 102.818 23.917 L 101.037 23.917 L 101.037 22.252 L 98.931 22.252 L 98.931 20.844 Z M 106.422 20.844 L 108.527 20.844 L 108.527 19.148 L 110.309 19.148 L 110.309 20.844 L 112.454 20.844 L 112.454 22.252 L 110.309 22.252 L 110.309 23.917 L 108.527 23.917 L 108.527 22.252 L 106.422 22.252 L 106.422 20.844 Z" fill="#fff" style=""/>
  <path fill="#0074BD" d="M 24.457 72.822 C 24.457 72.822 22.293 73.668 25.999 73.953 C 30.488 74.298 32.782 74.249 37.729 73.62 C 37.729 73.62 39.031 74.168 40.847 74.642 C 29.756 77.834 15.746 74.457 24.457 72.822 Z M 23.101 68.656 C 23.101 68.656 20.674 69.863 24.383 70.121 C 29.178 70.454 32.965 70.481 39.519 69.634 C 39.519 69.634 40.424 70.251 41.849 70.588 C 28.441 73.222 13.508 70.795 23.101 68.656 Z" style=""/>
  <path fill="#EA2D2E" d="M 34.525 61.588 C 37.26 63.702 33.809 65.604 33.809 65.604 C 33.809 65.604 40.747 63.197 37.561 60.184 C 34.584 57.374 32.302 55.979 44.657 51.166 C 44.657 51.166 25.264 54.418 34.525 61.588 Z" style=""/>
  <path fill="#0074BD" d="M 49.194 75.904 C 49.194 75.904 50.795 76.791 47.43 77.477 C 41.03 78.78 20.787 79.172 15.164 77.529 C 13.145 76.939 16.934 76.119 18.126 75.947 C 19.369 75.766 20.079 75.799 20.079 75.799 C 17.831 74.735 5.55 77.886 13.842 78.791 C 36.453 81.253 55.058 77.682 49.194 75.904 Z M 25.499 64.339 C 25.499 64.339 15.203 65.982 21.853 66.579 C 24.662 66.832 30.257 66.774 35.473 66.479 C 39.735 66.239 44.012 65.725 44.012 65.725 C 44.012 65.725 42.51 66.158 41.422 66.656 C 30.965 68.504 10.769 67.643 16.584 65.754 C 21.5 64.157 25.499 64.339 25.499 64.339 Z M 43.968 71.274 C 54.598 67.564 49.683 63.999 46.252 64.48 C 45.414 64.597 45.038 64.699 45.038 64.699 C 45.038 64.699 45.35 64.37 45.945 64.229 C 52.731 62.627 57.95 68.955 43.756 71.462 C 43.756 71.461 43.919 71.362 43.968 71.274 Z" style=""/>
  <path fill="#EA2D2E" d="M 37.561 43.392 C 37.561 43.392 43.447 47.348 31.978 53.43 C 22.781 58.309 29.881 61.091 31.974 64.271 C 26.606 61.016 22.666 58.151 25.309 55.486 C 29.188 51.572 39.935 49.675 37.561 43.392 Z" style=""/>
  <path fill="#0074BD" d="M 26.544 81.329 C 36.744 81.767 52.413 81.085 52.783 77.842 C 52.783 77.842 52.07 79.071 44.352 80.046 C 35.644 81.148 24.904 81.02 18.534 80.313 C 18.534 80.314 19.839 81.039 26.544 81.329 Z" style=""/>
  <path fill="#9B4F96" d="M 113.782 54.72 L 92.941 45.248 C 92.596 45.078 92.121 45.01 91.603 45.01 C 91.085 45.01 90.611 45.111 90.265 45.248 L 69.554 54.755 C 68.821 55.096 68.303 55.947 68.303 56.594 L 68.303 75.573 C 68.303 75.948 68.389 76.392 68.734 76.766 L 114.818 55.64 C 114.559 55.232 114.17 54.925 113.782 54.72 Z" style=""/>
  <path fill="#68217A" d="M 68.605 76.721 C 68.821 76.995 69.123 77.234 69.425 77.371 L 90.223 86.916 C 90.568 87.087 91.043 87.155 91.56 87.155 C 92.078 87.155 92.552 87.053 92.898 86.916 L 113.609 77.371 C 114.343 77.029 114.861 76.174 114.861 75.523 L 114.861 56.469 C 114.861 56.16 114.818 55.818 114.602 55.511 L 68.605 76.721 Z" style=""/>
  <path fill="#fff" d="M 100.795 70.19 C 98.982 72.711 95.53 74.415 91.603 74.415 C 85.778 74.415 81.032 70.667 81.032 66.067 C 81.032 61.467 85.778 57.72 91.603 57.72 C 95.53 57.72 98.982 59.423 100.795 61.978 L 106.404 59.423 C 103.469 55.369 97.946 52.608 91.603 52.608 C 82.197 52.608 74.559 58.639 74.559 66.067 C 74.559 73.495 82.197 79.526 91.603 79.526 C 97.903 79.526 103.426 76.8 106.36 72.779 L 100.795 70.19 Z M 105.842 66.817 L 106.231 65.352 L 104.419 65.352 L 104.419 63.751 L 106.62 63.751 L 107.137 61.637 L 109.251 61.637 L 108.734 63.716 L 110.373 63.716 L 110.891 61.637 L 112.962 61.637 L 112.445 63.716 L 113.48 63.716 L 113.48 65.317 L 112.056 65.317 L 111.667 66.783 L 113.48 66.783 L 113.48 68.384 L 111.28 68.384 L 110.762 70.428 L 108.647 70.428 L 109.165 68.384 L 107.526 68.384 L 107.008 70.428 L 104.937 70.428 L 105.455 68.384 L 104.419 68.384 L 104.419 66.783 L 105.842 66.783 Z M 107.914 66.817 L 109.553 66.817 L 109.942 65.352 L 108.302 65.352 L 107.914 66.817 Z" style=""/>
  <path d="M 6.53 118.468 L 6.53 114.125 L 7.958 114.125 C 8.749 114.125 10.004 114.068 10.761 113.993 L 12.103 113.879 L 10.314 113.351 C 9.317 113.067 8.061 112.652 7.528 112.425 L 6.53 112.029 L 6.53 103.173 L 8.13 103.173 C 8.99 103.173 10.245 103.117 10.899 103.041 L 12.103 102.928 L 9.987 102.305 C 8.818 101.984 7.579 101.55 7.201 101.38 L 6.53 101.04 L 6.53 92.468 L 7.063 92.336 C 7.356 92.279 8.078 92.222 8.663 92.222 C 11.553 92.222 18.416 91.184 21.787 90.24 C 24.143 89.56 25.777 88.88 26.345 88.314 C 26.637 88.031 26.654 88.201 26.654 92.373 L 26.654 96.735 L 26.242 97.075 L 25.829 97.434 L 26.654 98.227 L 26.654 107.686 L 26.242 108.026 L 25.829 108.385 L 26.654 109.178 L 26.654 118.637 L 26.207 119.015 C 25.725 119.43 23.868 120.129 21.752 120.714 C 18.45 121.621 10.383 122.81 7.631 122.81 L 6.53 122.81 Z" fill="#390d09" style=""/>
  <g fill="#de3423" transform="matrix(0.254196, 0, 0, 0.279043, 0.175565, 87.650337)" style="">
    <path d="M25 110.572V95.077l11.842-.474c12.315-.473 21.45-1.488 34.847-3.789 15.225-2.639 30.246-7.375 31.803-10.082.406-.677.676 4.534.676 14.616v15.698l-1.76 1.353c-1.894 1.489-9.202 3.993-17.524 6.09C71.892 121.737 40.157 126 29.33 126H25zM25 71.327V55.83l11.842-.406c13.127-.541 23.344-1.691 36.877-4.195 15.157-2.842 28.96-7.443 29.976-9.947.203-.473.406 6.09.406 14.616.067 13.533-.068 15.698-1.083 16.78-2.368 2.64-20.638 7.376-39.449 10.286-11.435 1.76-30.381 3.79-35.66 3.79H25zM25 32.352V17.195l2.098-.406c1.15-.203 3.992-.406 6.293-.406 11.367 0 38.366-3.722 51.628-7.105 9.27-2.436 15.698-4.872 17.931-6.902 1.15-1.015 1.218-.406 1.218 14.48 0 14.548-.067 15.63-1.285 16.714-1.827 1.691-14.345 5.548-24.09 7.51-15.765 3.113-41.951 6.429-50.883 6.429H25z"/>
  </g>
  <path fill="url(#kotlin-original-a)" d="M 28.803 90.074 L 45.832 90.074 L 28.803 104.457 Z" style=""/>
  <path fill="url(#kotlin-original-b)" d="M 62.132 118.662 L 45.624 104.055 L 28.803 118.662 Z" style=""/>
  <path fill="url(#kotlin-original-c)" d="M 28.803 118.662 L 62.132 90.074 L 45.624 90.074 L 28.803 104.301 Z" style=""/>
  <g fill="#0b5a9d" transform="matrix(0.35018, 0, 0, 0.29231, 69.08371, 87.99852)" style="">
    <path d="M63.877 125.392c-32.671 0-60.37-27.594-60.627-60.469a59.94 59.94 0 0117.506-42.759 60.939 60.939 0 0143.279-18.36 60.081 60.081 0 0142.647 17.71 60.145 60.145 0 0118.157 42.522c.151 33.604-26.864 61.021-60.469 61.363h-.493zm.19-118.406a57.774 57.774 0 00-41.01 17.427 56.775 56.775 0 00-16.63 40.484c.236 31.159 26.495 57.286 57.43 57.286h.414c31.863-.29 57.504-26.266 57.385-58.128a56.97 56.97 0 00-17.217-40.273A56.7 56.7 0 0064.068 6.986z"/>
    <path d="M16.89 82.383V46.865h8.64v3.183h-4.583v29.218h4.584v3.183l-8.642-.066zM46.213 64.272c0 6.478-3.933 10.167-9.26 10.167s-8.877-4.156-8.877-9.831c0-5.939 3.722-10.121 9.167-10.121s8.97 4.36 8.97 9.785zm-14.415.29c0 3.932 1.973 7.05 5.36 7.05s5.333-3.183 5.333-7.195c0-3.643-1.796-7.083-5.334-7.083s-5.392 3.328-5.392 7.307l.033-.08zM49.205 55.158c1.69-.29 3.407-.434 5.123-.428a9.17 9.17 0 015.537 1.223 4.062 4.062 0 012.006 3.61 4.48 4.48 0 01-3.183 4.183c2.269.46 3.9 2.46 3.9 4.775a5.016 5.016 0 01-1.861 3.978c-1.368 1.21-3.643 1.796-7.162 1.796a33.966 33.966 0 01-4.327-.257l-.033-18.88zm3.499 7.622h1.795c2.433 0 3.801-1.145 3.801-2.782 0-1.638-1.368-2.644-3.61-2.644a9.779 9.779 0 00-2.006.145l.02 5.28zm0 8.878c.618.065 1.243.092 1.86.078 2.263 0 4.262-.861 4.262-3.182s-1.94-3.183-4.373-3.183h-1.75v6.287zM69.54 54.901h3.517v12.554c0 5.334-2.577 7.116-6.365 7.116a9.313 9.313 0 01-2.973-.507l.428-2.834c.703.224 1.44.335 2.183.349 2.006 0 3.183-.921 3.183-4.262l.026-12.416zM83.067 65.357v2.434h-7.32v-2.434h7.32zM100.158 73.63c-1.585.632-3.281.921-4.978.862-6.129 0-9.851-3.834-9.851-9.707-.283-5.353 3.827-9.923 9.18-10.206.375-.02.757-.02 1.131.006a11.112 11.112 0 014.775.862l-.783 2.801a9.476 9.476 0 00-3.788-.75c-3.932 0-6.76 2.467-6.76 7.116 0 4.235 2.499 6.971 6.734 6.971a9.806 9.806 0 003.834-.717l.506 2.762zM111.2 46.766v35.61h-8.641v-3.182h4.583V49.949h-4.583v-3.183h8.64z"/>
  </g>
</svg>