<?xml version="1.0" encoding="utf-8"?>
<!-- Generator: Adobe Illustrator 23.0.1, SVG Export Plug-In . SVG Version: 6.00 Build 0)  -->
<svg version="1.1" id="Layer_1" xmlns="http://www.w3.org/2000/svg" xmlns:xlink="http://www.w3.org/1999/xlink" x="0px" y="0px"
	 viewBox="0 0 1000 1000" style="enable-background:new 0 0 1000 1000;" xml:space="preserve" >
<style type="text/css">
	.st0{fill:#F3F3F3;}
	.st1{fill:#2D3A3F;}
</style>
<g>
	<g>
		<path class="st0" d="M650.3,417.2c0,57.2-31.5,106.4-78.8,132.1c-21.7,11.8-46.3,18.7-71.9,18.7c-82.8,0-150.8-67-150.8-150.8
			c0-57.2,31.5-106.4,78.8-132.1c21.7-11.8,46.3-18.7,71.9-18.7C582.3,267.4,650.3,334.4,650.3,417.2z"/>
		<g>
			<path class="st1" d="M650.3,417.2c0,57.2-31.5,106.4-78.8,132.1c-25.6,4.9-52.2-2-71.9-21.7c-30.6-30.6-30.6-80.8,0-111.4
				s30.6-80.8,0-111.4c-19.7-19.7-46.3-26.6-71.9-21.7c21.7-11.8,46.3-18.7,71.9-18.7C582.3,267.4,650.3,334.4,650.3,417.2z"/>
			<path class="st1" d="M464,501L464,501c-3-3.9-4.9-7.9-7.9-11.8c-3-5.9-5.9-11.8-7.9-17.7c-10.8-41.4,18.7-79.8,38.4-122.2h-26.6
				c0,0-27.6,44.3-35.5,77.9c-16.8-40.4-27.6-77.9-27.6-77.9h-23.7c0,0,32.5,110.4,71,162.6h25.6C468,507.9,466,504.9,464,501
				L464,501z"/>
		</g>
		<path class="st0" d="M533,332.5L533,332.5c3,3.9,4.9,7.9,7.9,11.8c3,5.9,5.9,11.8,7.9,17.7c10.8,41.4-18.7,79.8-38.4,122.2H536
			c0,0,27.6-44.3,35.5-77.9c16.8,40.4,27.6,77.9,27.6,77.9h23.7c0,0-32.5-110.4-71-162.6h-25.6C528.1,326.6,531,329.5,533,332.5
			L533,332.5z"/>
	</g>
	<g>
		<path class="st1" d="M40.3,633c-7.9,0-13.8,3-18.7,8.9s-6.9,13.8-6.9,23.7c0,10.8,2,17.7,6.9,23.7c4.9,5.9,10.8,7.9,18.7,7.9
			c3.9,0,6.9,0,10.8-1s6.9-2,10.8-3V705c-6.9,3-13.8,3.9-22.7,3.9c-12.8,0-21.7-3.9-28.6-10.8s-9.9-17.7-9.9-32.5
			c0-8.9,2-16.8,4.9-22.7s7.9-11.8,13.8-14.8c5.9-3,12.8-4.9,21.7-4.9s16.8,2,23.7,5.9L60,640.9c-3-1-5.9-3-8.9-3.9
			S43.2,633,40.3,633z"/>
		<path class="st1" d="M133.9,674.4c0,10.8-3,18.7-7.9,24.6c-4.9,5.9-12.8,8.9-21.7,8.9c-5.9,0-10.8-1-15.8-3.9s-7.9-6.9-10.8-11.8
			c-3-4.9-3.9-10.8-3.9-17.7c0-10.8,3-18.7,7.9-24.6s12.8-8.9,22.7-8.9c8.9,0,16.8,3,21.7,8.9S133.9,664.6,133.9,674.4z M87.6,674.4
			c0,14.8,5.9,21.7,16.8,21.7s15.8-6.9,15.8-21.7s-5.9-21.7-16.8-21.7c-5.9,0-9.9,2-12.8,5.9C87.6,662.6,87.6,667.5,87.6,674.4z"/>
		<path class="st1" d="M203.9,706h-13.8v-39.4c0-4.9-1-8.9-3-10.8c-2-2-4.9-3.9-8.9-3.9c-4.9,0-8.9,2-11.8,4.9
			c-3,3-3.9,8.9-3.9,16.8V705h-13.8v-64.1h10.8l2,7.9h1c2-3,3.9-4.9,7.9-6.9c3.9-2,6.9-3,10.8-3c9.9,0,16.8,3,19.7,9.9h1
			c2-3,4.9-5.9,7.9-7.9s6.9-3,11.8-3c7.9,0,12.8,2,16.8,5.9c3.9,3.9,4.9,9.9,4.9,17.7V703h-13.8v-39.4c0-4.9-1-8.9-3-10.8
			c-2-2-4.9-3.9-8.9-3.9c-4.9,0-8.9,2-11.8,4.9c-3,3-2,11.8-2,18.7V706z"/>
		<path class="st1" d="M317.2,706h-13.8v-39.4c0-4.9-1-8.9-3-10.8c-2-2-4.9-3.9-8.9-3.9c-4.9,0-8.9,2-11.8,4.9
			c-3,3-3.9,8.9-3.9,16.8V705H263v-64.1h10.8l2,7.9h1c2-3,3.9-4.9,7.9-6.9s6.9-3,10.8-3c9.9,0,16.8,3,19.7,9.9h1
			c2-3,4.9-5.9,7.9-7.9s6.9-3,11.8-3c7.9,0,12.8,2,16.8,5.9c3.9,3.9,4.9,9.9,4.9,17.7V703h-13.8v-39.4c0-4.9-1-8.9-3-10.8
			s-4.9-3.9-8.9-3.9c-4.9,0-8.9,2-11.8,4.9c-3,3-3.9,7.9-3.9,14.8V706H317.2z"/>
		<path class="st1" d="M432.5,674.4c0,10.8-3,18.7-7.9,24.6c-4.9,5.9-12.8,8.9-22.7,8.9c-5.9,0-10.8-1-15.8-3.9s-7.9-6.9-10.8-11.8
			c-3-4.9-3.9-10.8-3.9-17.7c0-10.8,3-18.7,7.9-24.6s12.8-8.9,22.7-8.9c8.9,0,16.8,3,21.7,8.9C428.6,655.7,432.5,664.6,432.5,674.4z
			 M386.2,674.4c0,14.8,5.9,21.7,16.8,21.7c10.8,0,15.8-6.9,15.8-21.7s-5.9-21.7-16.8-21.7c-5.9,0-9.9,2-12.8,5.9
			C386.2,662.6,386.2,667.5,386.2,674.4z"/>
		<path class="st1" d="M504.4,706h-13.8v-39.4c0-4.9-1-8.9-3-10.8c-2-2-4.9-3.9-9.9-3.9c-5.9,0-9.9,2-12.8,4.9
			c-3,3-3.9,8.9-3.9,16.8V705h-13.8v-64.1h10.8l2,7.9h1c2-3,4.9-4.9,7.9-6.9c3-2,7.9-3,11.8-3c15.8,0,22.7,7.9,22.7,23.7V706H504.4z
			"/>
		<path class="st1" d="M517.2,680.3v-11.8h29.6v11.8H517.2z"/>
		<path class="st1" d="M562.6,706v-84.8h13.8v72.9h35.5V706H562.6z"/>
		<path class="st1" d="M624.7,625.2c0-2,1-3.9,2-5.9c1-2,3-2,5.9-2c2,0,3.9,1,5.9,2c2,1,2,3,2,5.9c0,2-1,3.9-2,5.9c-1,2-3,2-5.9,2
			c-2,0-3.9-1-5.9-2C624.7,630.1,624.7,628.1,624.7,625.2z M639.4,706h-13.8v-64.1h13.8V706z"/>
		<path class="st1" d="M701.5,688.2c0,5.9-2,10.8-6.9,14.8c-4.9,3.9-10.8,4.9-19.7,4.9c-8.9,0-15.8-1-20.7-3.9v-11.8
			c7.9,3.9,14.8,4.9,20.7,4.9c7.9,0,12.8-3,12.8-7.9c0-2,0-3-1-3.9s-2-2-4.9-3s-4.9-3-8.9-3.9c-6.9-3-12.8-5.9-14.8-8.9
			c-2-3-3.9-6.9-3.9-10.8c0-5.9,2-9.9,6.9-12.8c4.9-3,10.8-4.9,17.7-4.9c7.9,0,14.8,2,21.7,4.9l-3.9,9.9c-6.9-3-12.8-3.9-17.7-3.9
			c-6.9,0-10.8,2-10.8,5.9c0,2,1,3.9,3,4.9s5.9,3,11.8,5.9c4.9,2,8.9,3.9,11.8,5.9c3,2,3.9,3.9,4.9,5.9
			C700.5,682.3,701.5,685.3,701.5,688.2z"/>
		<path class="st1" d="M748.8,707.9c-7.9,0-14.8-3-18.7-8.9h-1c1,4.9,1,8.9,1,9.9v26.6h-13.8v-92.6h10.8c0,1,1,3.9,2,8.9h1
			c3.9-6.9,10.8-9.9,18.7-9.9c7.9,0,13.8,3,18.7,8.9c4.9,5.9,6.9,13.8,6.9,24.6s-2,18.7-6.9,24.6C762.6,706,756.7,707.9,748.8,707.9
			z M744.9,652.8c-4.9,0-8.9,2-11.8,4.9c-3,3-3.9,7.9-3.9,14.8v2c0,7.9,1,13.8,3.9,16.8s6.9,4.9,11.8,4.9c4.9,0,7.9-2,10.8-5.9
			c3-3.9,3.9-8.9,3.9-16.8c0-6.9-1-12.8-3.9-15.8C752.8,654.7,749.8,652.8,744.9,652.8z"/>
		<path class="st1" d="M787.3,699.1c0-3,1-4.9,2-6.9s3.9-2,5.9-2c3,0,4.9,1,6.9,2c2,1,2,3.9,2,5.9c0,3-1,4.9-2,6.9c-1,2-3,3-5.9,3
			s-4.9-1-5.9-2C789.2,705,787.3,702,787.3,699.1z"/>
		<path class="st1" d="M877.9,706h-13.8v-39.4c0-4.9-1-8.9-3-10.8c-2-2-4.9-3.9-9.9-3.9c-5.9,0-9.9,2-12.8,4.9
			c-3,3-3.9,8.9-3.9,16.8V705h-13.8v-64.1h10.8l2,7.9h1c2-3,4.9-4.9,7.9-6.9s7.9-3,11.8-3c15.8,0,22.7,7.9,22.7,23.7V706H877.9z"/>
		<path class="st1" d="M925.2,707.9c-9.9,0-17.7-3-23.7-8.9c-5.9-5.9-8.9-13.8-8.9-23.7c0-10.8,3-18.7,7.9-24.6
			c4.9-5.9,12.8-8.9,21.7-8.9c8.9,0,14.8,3,19.7,7.9c4.9,4.9,6.9,11.8,6.9,20.7v6.9h-42.4c0,5.9,2,10.8,4.9,14.8s7.9,4.9,13.8,4.9
			c3.9,0,6.9,0,10.8-1s6.9-2,10.8-3.9V703c-3,2-6.9,3-9.9,3S929.2,707.9,925.2,707.9z M922.3,651.8c-3.9,0-7.9,1-10.8,3.9
			c-3,3-3.9,6.9-4.9,11.8h28.6c0-4.9-1-8.9-3.9-11.8C928.2,652.8,927.2,651.8,922.3,651.8z"/>
		<path class="st1" d="M989.3,696.1c3,0,6.9-1,9.9-2v9.9c-2,1-3,1-5.9,2c-3,1-4.9,1-6.9,1c-12.8,0-19.7-6.9-19.7-20.7v-34.5h-8.9
			v-5.9l8.9-4.9l4.9-13.8h7.9v13.8h17.7v9.9h-17.7v34.5c0,3,1,5.9,2,6.9C982.4,693.2,986.3,696.1,989.3,696.1z"/>
	</g>
</g>
</svg>
