<?xml version="1.0" encoding="utf-8"?>
<svg viewBox="0 0 128 128" xmlns="http://www.w3.org/2000/svg">
  <g id="layer101" style="fill: rgb(115, 79, 150); stroke: none;" transform="matrix(0.049878, 0, 0, 0.036406, 0.33946, 13.028426)">
    <path d="M 374 2589.893 C 223.231 2589.943 -0.142 2323.46 -0.142 2208.675 L -0.142 384.283 C -0.142 229.803 263.836 7.893 377.76 7.901 L 2183.116 8.03 C 2338.899 8.04 2550.279 265.309 2550.279 387.914 L 2550.279 2214.095 C 2550.279 2394 2312.223 2589.232 2177.997 2589.277 Z" id="path2"/>
  </g>
  <g id="layer102" style="fill: rgb(255, 255, 255); stroke: none;" transform="matrix(0.049878, 0, 0, 0.036406, 0.33946, 13.028426)">
    <path d="M350 2062l98-6c199-13 197-12 207-168 9-148-2.337-1306.766-9-1330-10.975-38.27-52.156-60.281-175-60.25L350 497V280h1860v831l-219-3.25c-2-2-8-60.75-12-114.75-23-254-80-400.142-190-457.142-58-30-148.565-38.842-438.652-38.93L1080 497v623h48c81-1 184-20 218-41 44-27 81-105 94-199 9.8-68.603 17.362-119.933 17.362-119.933L1670 760v990h-220v-39c0-64-30-213-51-258-33-69-89-93-248-108l-73-7 4 321c3 305 5 322 24 348 24 32 50 38 209 50l106.727 5.077L1421 2280H350z" id="path5"/>
  </g>
</svg>